<mxfile host="www.draw.io" modified="2019-12-15T09:51:27.353Z" agent="Mozilla/5.0 (Windows NT 10.0; Win64; x64) AppleWebKit/537.36 (KHTML, like Gecko) Chrome/78.0.3904.108 Safari/537.36" etag="pf0bxkYmQlk-OJumFgd5" version="12.4.2" type="github" pages="1">
  <diagram id="70gZRt3q0eoW61slp-_8" name="Page-1">
    <mxGraphModel dx="1422" dy="1914" grid="1" gridSize="10" guides="1" tooltips="1" connect="1" arrows="1" fold="1" page="1" pageScale="1" pageWidth="827" pageHeight="1169" math="0" shadow="0">
      <root>
        <mxCell id="0"/>
        <mxCell id="1" parent="0"/>
        <mxCell id="23mxCUqjVjc-qdjYl1kk-17" value="" style="group" vertex="1" connectable="0" parent="1">
          <mxGeometry x="100" y="-50" width="720" height="1040" as="geometry"/>
        </mxCell>
        <mxCell id="23mxCUqjVjc-qdjYl1kk-14" value="" style="shape=singleArrow;direction=north;whiteSpace=wrap;html=1;dashed=1;fillColor=#000000;strokeColor=#000000;" vertex="1" parent="23mxCUqjVjc-qdjYl1kk-17">
          <mxGeometry x="260" y="674" width="20" height="10" as="geometry"/>
        </mxCell>
        <mxCell id="23mxCUqjVjc-qdjYl1kk-12" value="" style="rounded=0;whiteSpace=wrap;html=1;dashed=1;fillColor=none;" vertex="1" parent="23mxCUqjVjc-qdjYl1kk-17">
          <mxGeometry y="50" width="640" height="830" as="geometry"/>
        </mxCell>
        <mxCell id="e1HbH2SgWsViKI4H7jnL-1" value="Actor" style="shape=umlActor;verticalLabelPosition=bottom;labelBackgroundColor=#ffffff;verticalAlign=top;html=1;outlineConnect=0;fillColor=#290015;" parent="23mxCUqjVjc-qdjYl1kk-17" vertex="1">
          <mxGeometry x="640" y="320" width="80" height="150" as="geometry"/>
        </mxCell>
        <mxCell id="e1HbH2SgWsViKI4H7jnL-2" value="Stworzenie możliwości blokady czatu gry" style="ellipse;whiteSpace=wrap;html=1;fillColor=#E6E6E6;" parent="23mxCUqjVjc-qdjYl1kk-17" vertex="1">
          <mxGeometry x="340" y="770" width="120" height="80" as="geometry"/>
        </mxCell>
        <mxCell id="e1HbH2SgWsViKI4H7jnL-3" value="Stworzenie możliwości dodania Avatara do konta gracza" style="ellipse;whiteSpace=wrap;html=1;fillColor=#009999;" parent="23mxCUqjVjc-qdjYl1kk-17" vertex="1">
          <mxGeometry x="240" y="100" width="120" height="80" as="geometry"/>
        </mxCell>
        <mxCell id="e1HbH2SgWsViKI4H7jnL-4" value="Podgląd do pełnej mapy&amp;nbsp; świata" style="ellipse;whiteSpace=wrap;html=1;fillColor=#666666;" parent="23mxCUqjVjc-qdjYl1kk-17" vertex="1">
          <mxGeometry x="40" y="240" width="120" height="80" as="geometry"/>
        </mxCell>
        <mxCell id="e1HbH2SgWsViKI4H7jnL-5" value="Sworzenie grupy czatu gry" style="ellipse;whiteSpace=wrap;html=1;fillColor=#E6E6E6;" parent="23mxCUqjVjc-qdjYl1kk-17" vertex="1">
          <mxGeometry x="210" y="594" width="120" height="80" as="geometry"/>
        </mxCell>
        <mxCell id="e1HbH2SgWsViKI4H7jnL-7" value="Dostosowywanie powiadomień czatu&amp;nbsp;" style="ellipse;whiteSpace=wrap;html=1;fillColor=#E6E6E6;strokeColor=#666666;fontColor=#333333;" parent="23mxCUqjVjc-qdjYl1kk-17" vertex="1">
          <mxGeometry x="50" y="770" width="120" height="80" as="geometry"/>
        </mxCell>
        <mxCell id="e1HbH2SgWsViKI4H7jnL-8" value="Stworzenie wyszukiwarki Graczy ( online/offline)&amp;nbsp;" style="ellipse;whiteSpace=wrap;html=1;fillColor=#0066CC;" parent="23mxCUqjVjc-qdjYl1kk-17" vertex="1">
          <mxGeometry x="10" y="130" width="120" height="80" as="geometry"/>
        </mxCell>
        <mxCell id="e1HbH2SgWsViKI4H7jnL-9" value="Stworzenie dostępu do aplikacji mobilnej&amp;nbsp;" style="ellipse;whiteSpace=wrap;html=1;fillColor=#4D9900;" parent="23mxCUqjVjc-qdjYl1kk-17" vertex="1">
          <mxGeometry x="390" y="110" width="120" height="80" as="geometry"/>
        </mxCell>
        <mxCell id="e1HbH2SgWsViKI4H7jnL-10" value="Stworzenie wyboru koloru oprawy graficznej" style="ellipse;whiteSpace=wrap;html=1;fillColor=#B3B3B3;" parent="23mxCUqjVjc-qdjYl1kk-17" vertex="1">
          <mxGeometry x="40" y="490" width="120" height="80" as="geometry"/>
        </mxCell>
        <mxCell id="e1HbH2SgWsViKI4H7jnL-11" value="Dostosowanie rozdzielczości okna do gry" style="ellipse;whiteSpace=wrap;html=1;fillColor=#808080;" parent="23mxCUqjVjc-qdjYl1kk-17" vertex="1">
          <mxGeometry x="30" y="390" width="120" height="80" as="geometry"/>
        </mxCell>
        <mxCell id="e1HbH2SgWsViKI4H7jnL-19" value="" style="endArrow=none;html=1;exitX=0;exitY=0.3333333333333333;exitDx=0;exitDy=0;exitPerimeter=0;entryX=1;entryY=1;entryDx=0;entryDy=0;" parent="23mxCUqjVjc-qdjYl1kk-17" source="e1HbH2SgWsViKI4H7jnL-1" target="e1HbH2SgWsViKI4H7jnL-4" edge="1">
          <mxGeometry width="50" height="50" relative="1" as="geometry">
            <mxPoint x="135" y="265" as="sourcePoint"/>
            <mxPoint x="185" y="215" as="targetPoint"/>
          </mxGeometry>
        </mxCell>
        <mxCell id="e1HbH2SgWsViKI4H7jnL-20" value="" style="endArrow=none;html=1;entryX=0.5;entryY=0.5;entryDx=0;entryDy=0;entryPerimeter=0;exitX=0.408;exitY=0.025;exitDx=0;exitDy=0;exitPerimeter=0;" parent="23mxCUqjVjc-qdjYl1kk-17" source="e1HbH2SgWsViKI4H7jnL-10" target="e1HbH2SgWsViKI4H7jnL-1" edge="1">
          <mxGeometry width="50" height="50" relative="1" as="geometry">
            <mxPoint x="50" y="530" as="sourcePoint"/>
            <mxPoint x="100" y="480" as="targetPoint"/>
          </mxGeometry>
        </mxCell>
        <mxCell id="e1HbH2SgWsViKI4H7jnL-22" value="" style="endArrow=none;html=1;entryX=1;entryY=0;entryDx=0;entryDy=0;exitX=1;exitY=1;exitDx=0;exitDy=0;exitPerimeter=0;" parent="23mxCUqjVjc-qdjYl1kk-17" source="e1HbH2SgWsViKI4H7jnL-1" target="e1HbH2SgWsViKI4H7jnL-2" edge="1">
          <mxGeometry width="50" height="50" relative="1" as="geometry">
            <mxPoint x="325" y="380" as="sourcePoint"/>
            <mxPoint x="210" y="220" as="targetPoint"/>
          </mxGeometry>
        </mxCell>
        <mxCell id="e1HbH2SgWsViKI4H7jnL-26" value="" style="endArrow=none;html=1;entryX=0.5;entryY=0.5;entryDx=0;entryDy=0;entryPerimeter=0;" parent="23mxCUqjVjc-qdjYl1kk-17" source="e1HbH2SgWsViKI4H7jnL-11" target="e1HbH2SgWsViKI4H7jnL-1" edge="1">
          <mxGeometry width="50" height="50" relative="1" as="geometry">
            <mxPoint x="330" y="540" as="sourcePoint"/>
            <mxPoint x="655" y="400" as="targetPoint"/>
          </mxGeometry>
        </mxCell>
        <mxCell id="e1HbH2SgWsViKI4H7jnL-33" value="" style="endArrow=none;html=1;entryX=0.5;entryY=1;entryDx=0;entryDy=0;exitX=0.25;exitY=0.1;exitDx=0;exitDy=0;exitPerimeter=0;" parent="23mxCUqjVjc-qdjYl1kk-17" edge="1" target="e1HbH2SgWsViKI4H7jnL-3" source="e1HbH2SgWsViKI4H7jnL-1">
          <mxGeometry width="50" height="50" relative="1" as="geometry">
            <mxPoint x="520" y="240" as="sourcePoint"/>
            <mxPoint x="570" y="190" as="targetPoint"/>
          </mxGeometry>
        </mxCell>
        <mxCell id="23mxCUqjVjc-qdjYl1kk-1" value="" style="endArrow=none;html=1;entryX=0.5;entryY=1;entryDx=0;entryDy=0;exitX=0.5;exitY=0;exitDx=0;exitDy=0;exitPerimeter=0;" edge="1" parent="23mxCUqjVjc-qdjYl1kk-17" source="e1HbH2SgWsViKI4H7jnL-1" target="e1HbH2SgWsViKI4H7jnL-9">
          <mxGeometry width="50" height="50" relative="1" as="geometry">
            <mxPoint x="540" y="220" as="sourcePoint"/>
            <mxPoint x="590" y="170" as="targetPoint"/>
          </mxGeometry>
        </mxCell>
        <mxCell id="23mxCUqjVjc-qdjYl1kk-2" value="" style="endArrow=none;html=1;entryX=1;entryY=0.5;entryDx=0;entryDy=0;exitX=1;exitY=0.3333333333333333;exitDx=0;exitDy=0;exitPerimeter=0;" edge="1" parent="23mxCUqjVjc-qdjYl1kk-17" source="e1HbH2SgWsViKI4H7jnL-1" target="e1HbH2SgWsViKI4H7jnL-8">
          <mxGeometry width="50" height="50" relative="1" as="geometry">
            <mxPoint x="290" y="290" as="sourcePoint"/>
            <mxPoint x="340" y="240" as="targetPoint"/>
          </mxGeometry>
        </mxCell>
        <mxCell id="23mxCUqjVjc-qdjYl1kk-3" value="" style="endArrow=none;html=1;exitX=1;exitY=0.5;exitDx=0;exitDy=0;entryX=0;entryY=1;entryDx=0;entryDy=0;entryPerimeter=0;" edge="1" parent="23mxCUqjVjc-qdjYl1kk-17" source="e1HbH2SgWsViKI4H7jnL-5" target="e1HbH2SgWsViKI4H7jnL-1">
          <mxGeometry width="50" height="50" relative="1" as="geometry">
            <mxPoint x="360" y="590" as="sourcePoint"/>
            <mxPoint x="410" y="540" as="targetPoint"/>
          </mxGeometry>
        </mxCell>
        <mxCell id="23mxCUqjVjc-qdjYl1kk-4" value="" style="endArrow=none;dashed=1;html=1;entryX=0.5;entryY=1;entryDx=0;entryDy=0;" edge="1" parent="23mxCUqjVjc-qdjYl1kk-17" source="e1HbH2SgWsViKI4H7jnL-2" target="e1HbH2SgWsViKI4H7jnL-5">
          <mxGeometry width="50" height="50" relative="1" as="geometry">
            <mxPoint x="195" y="750" as="sourcePoint"/>
            <mxPoint x="245" y="700" as="targetPoint"/>
          </mxGeometry>
        </mxCell>
        <mxCell id="23mxCUqjVjc-qdjYl1kk-5" value="" style="endArrow=none;dashed=1;html=1;entryX=0.5;entryY=1;entryDx=0;entryDy=0;exitX=0.733;exitY=0.025;exitDx=0;exitDy=0;exitPerimeter=0;" edge="1" parent="23mxCUqjVjc-qdjYl1kk-17" source="e1HbH2SgWsViKI4H7jnL-7" target="e1HbH2SgWsViKI4H7jnL-5">
          <mxGeometry width="50" height="50" relative="1" as="geometry">
            <mxPoint x="125" y="760" as="sourcePoint"/>
            <mxPoint x="175" y="710" as="targetPoint"/>
          </mxGeometry>
        </mxCell>
        <mxCell id="23mxCUqjVjc-qdjYl1kk-6" value="" style="endArrow=none;html=1;exitX=1;exitY=0;exitDx=0;exitDy=0;entryX=1;entryY=1;entryDx=0;entryDy=0;entryPerimeter=0;" edge="1" parent="23mxCUqjVjc-qdjYl1kk-17" source="e1HbH2SgWsViKI4H7jnL-7" target="e1HbH2SgWsViKI4H7jnL-1">
          <mxGeometry width="50" height="50" relative="1" as="geometry">
            <mxPoint x="420" y="690" as="sourcePoint"/>
            <mxPoint x="470" y="640" as="targetPoint"/>
          </mxGeometry>
        </mxCell>
        <mxCell id="23mxCUqjVjc-qdjYl1kk-7" value="Dostęp do czatu gry" style="ellipse;whiteSpace=wrap;html=1;fillColor=#E6E6E6;" vertex="1" parent="23mxCUqjVjc-qdjYl1kk-17">
          <mxGeometry x="210" y="470" width="120" height="80" as="geometry"/>
        </mxCell>
        <mxCell id="23mxCUqjVjc-qdjYl1kk-9" value="" style="endArrow=none;html=1;exitX=1;exitY=0;exitDx=0;exitDy=0;entryX=0.5;entryY=0.5;entryDx=0;entryDy=0;entryPerimeter=0;" edge="1" parent="23mxCUqjVjc-qdjYl1kk-17" source="23mxCUqjVjc-qdjYl1kk-7" target="e1HbH2SgWsViKI4H7jnL-1">
          <mxGeometry width="50" height="50" relative="1" as="geometry">
            <mxPoint x="420" y="540" as="sourcePoint"/>
            <mxPoint x="470" y="490" as="targetPoint"/>
          </mxGeometry>
        </mxCell>
        <mxCell id="23mxCUqjVjc-qdjYl1kk-15" value="" style="endArrow=classic;html=1;dashed=1;exitX=0.5;exitY=1;exitDx=0;exitDy=0;entryX=0.5;entryY=0;entryDx=0;entryDy=0;" edge="1" parent="23mxCUqjVjc-qdjYl1kk-17" source="23mxCUqjVjc-qdjYl1kk-7" target="e1HbH2SgWsViKI4H7jnL-5">
          <mxGeometry width="50" height="50" relative="1" as="geometry">
            <mxPoint x="230" y="600" as="sourcePoint"/>
            <mxPoint x="280" y="550" as="targetPoint"/>
          </mxGeometry>
        </mxCell>
      </root>
    </mxGraphModel>
  </diagram>
</mxfile>
